<!-- Placeholder SVG for keyboard image -->
<svg width="400" height="400" viewBox="0 0 400 400" fill="none" xmlns="http://www.w3.org/2000/svg">
  <rect width="400" height="400" fill="#f3f4f6"/>
  <rect x="50" y="150" width="300" height="100" rx="8" fill="#1f2937"/>
  <rect x="60" y="160" width="280" height="80" fill="#374151"/>
  
  <!-- Row 1 - Function keys -->
  <rect x="70" y="170" width="12" height="8" rx="1" fill="#6b7280"/>
  <rect x="85" y="170" width="12" height="8" rx="1" fill="#6b7280"/>
  <rect x="100" y="170" width="12" height="8" rx="1" fill="#6b7280"/>
  <rect x="115" y="170" width="12" height="8" rx="1" fill="#6b7280"/>
  <rect x="135" y="170" width="12" height="8" rx="1" fill="#6b7280"/>
  <rect x="150" y="170" width="12" height="8" rx="1" fill="#6b7280"/>
  <rect x="165" y="170" width="12" height="8" rx="1" fill="#6b7280"/>
  <rect x="180" y="170" width="12" height="8" rx="1" fill="#6b7280"/>
  <rect x="200" y="170" width="12" height="8" rx="1" fill="#6b7280"/>
  <rect x="215" y="170" width="12" height="8" rx="1" fill="#6b7280"/>
  <rect x="230" y="170" width="12" height="8" rx="1" fill="#6b7280"/>
  <rect x="245" y="170" width="12" height="8" rx="1" fill="#6b7280"/>
  
  <!-- Row 2 - Number row -->
  <rect x="70" y="185" width="12" height="8" rx="1" fill="#9ca3af"/>
  <rect x="85" y="185" width="12" height="8" rx="1" fill="#9ca3af"/>
  <rect x="100" y="185" width="12" height="8" rx="1" fill="#9ca3af"/>
  <rect x="115" y="185" width="12" height="8" rx="1" fill="#9ca3af"/>
  <rect x="130" y="185" width="12" height="8" rx="1" fill="#9ca3af"/>
  <rect x="145" y="185" width="12" height="8" rx="1" fill="#9ca3af"/>
  <rect x="160" y="185" width="12" height="8" rx="1" fill="#9ca3af"/>
  <rect x="175" y="185" width="12" height="8" rx="1" fill="#9ca3af"/>
  <rect x="190" y="185" width="12" height="8" rx="1" fill="#9ca3af"/>
  <rect x="205" y="185" width="12" height="8" rx="1" fill="#9ca3af"/>
  <rect x="220" y="185" width="12" height="8" rx="1" fill="#9ca3af"/>
  <rect x="235" y="185" width="12" height="8" rx="1" fill="#9ca3af"/>
  <rect x="250" y="185" width="17" height="8" rx="1" fill="#9ca3af"/>
  
  <!-- Row 3 - QWERTY row -->
  <rect x="70" y="200" width="18" height="8" rx="1" fill="#9ca3af"/>
  <rect x="92" y="200" width="12" height="8" rx="1" fill="#9ca3af"/>
  <rect x="107" y="200" width="12" height="8" rx="1" fill="#9ca3af"/>
  <rect x="122" y="200" width="12" height="8" rx="1" fill="#9ca3af"/>
  <rect x="137" y="200" width="12" height="8" rx="1" fill="#9ca3af"/>
  <rect x="152" y="200" width="12" height="8" rx="1" fill="#9ca3af"/>
  <rect x="167" y="200" width="12" height="8" rx="1" fill="#9ca3af"/>
  <rect x="182" y="200" width="12" height="8" rx="1" fill="#9ca3af"/>
  <rect x="197" y="200" width="12" height="8" rx="1" fill="#9ca3af"/>
  <rect x="212" y="200" width="12" height="8" rx="1" fill="#9ca3af"/>
  <rect x="227" y="200" width="12" height="8" rx="1" fill="#9ca3af"/>
  <rect x="242" y="200" width="12" height="8" rx="1" fill="#9ca3af"/>
  <rect x="257" y="200" width="18" height="8" rx="1" fill="#9ca3af"/>
  
  <!-- Row 4 - ASDF row -->
  <rect x="70" y="215" width="22" height="8" rx="1" fill="#9ca3af"/>
  <rect x="96" y="215" width="12" height="8" rx="1" fill="#9ca3af"/>
  <rect x="111" y="215" width="12" height="8" rx="1" fill="#9ca3af"/>
  <rect x="126" y="215" width="12" height="8" rx="1" fill="#9ca3af"/>
  <rect x="141" y="215" width="12" height="8" rx="1" fill="#9ca3af"/>
  <rect x="156" y="215" width="12" height="8" rx="1" fill="#9ca3af"/>
  <rect x="171" y="215" width="12" height="8" rx="1" fill="#9ca3af"/>
  <rect x="186" y="215" width="12" height="8" rx="1" fill="#9ca3af"/>
  <rect x="201" y="215" width="12" height="8" rx="1" fill="#9ca3af"/>
  <rect x="216" y="215" width="12" height="8" rx="1" fill="#9ca3af"/>
  <rect x="231" y="215" width="12" height="8" rx="1" fill="#9ca3af"/>
  <rect x="246" y="215" width="12" height="8" rx="1" fill="#9ca3af"/>
  <rect x="261" y="215" width="20" height="8" rx="1" fill="#9ca3af"/>
  
  <!-- Row 5 - Space row -->
  <rect x="70" y="230" width="25" height="8" rx="1" fill="#9ca3af"/>
  <rect x="120" y="230" width="100" height="8" rx="1" fill="#dc2626"/>
  <rect x="225" y="230" width="15" height="8" rx="1" fill="#9ca3af"/>
  <rect x="245" y="230" width="15" height="8" rx="1" fill="#9ca3af"/>
  <rect x="265" y="230" width="15" height="8" rx="1" fill="#9ca3af"/>
  
  <!-- LED indicators -->
  <circle cx="300" cy="175" r="2" fill="#22c55e"/>
  <circle cx="310" cy="175" r="2" fill="#6b7280"/>
  <circle cx="320" cy="175" r="2" fill="#6b7280"/>
  
  <text x="200" y="290" text-anchor="middle" fill="#9ca3af" font-family="Arial" font-size="16">KEYBOARD</text>
</svg>