<!-- Placeholder SVG for cooling system image -->
<svg width="400" height="400" viewBox="0 0 400 400" fill="none" xmlns="http://www.w3.org/2000/svg">
  <rect width="400" height="400" fill="#f3f4f6"/>
  <!-- Radiator -->
  <rect x="100" y="80" width="200" height="30" fill="#6b7280"/>
  <!-- Radiator fins -->
  <line x1="110" y1="80" x2="110" y2="110" stroke="#374151" stroke-width="1"/>
  <line x1="120" y1="80" x2="120" y2="110" stroke="#374151" stroke-width="1"/>
  <line x1="130" y1="80" x2="130" y2="110" stroke="#374151" stroke-width="1"/>
  <line x1="140" y1="80" x2="140" y2="110" stroke="#374151" stroke-width="1"/>
  <line x1="150" y1="80" x2="150" y2="110" stroke="#374151" stroke-width="1"/>
  <line x1="160" y1="80" x2="160" y2="110" stroke="#374151" stroke-width="1"/>
  <line x1="170" y1="80" x2="170" y2="110" stroke="#374151" stroke-width="1"/>
  <line x1="180" y1="80" x2="180" y2="110" stroke="#374151" stroke-width="1"/>
  <line x1="190" y1="80" x2="190" y2="110" stroke="#374151" stroke-width="1"/>
  <line x1="200" y1="80" x2="200" y2="110" stroke="#374151" stroke-width="1"/>
  <line x1="210" y1="80" x2="210" y2="110" stroke="#374151" stroke-width="1"/>
  <line x1="220" y1="80" x2="220" y2="110" stroke="#374151" stroke-width="1"/>
  <line x1="230" y1="80" x2="230" y2="110" stroke="#374151" stroke-width="1"/>
  <line x1="240" y1="80" x2="240" y2="110" stroke="#374151" stroke-width="1"/>
  <line x1="250" y1="80" x2="250" y2="110" stroke="#374151" stroke-width="1"/>
  <line x1="260" y1="80" x2="260" y2="110" stroke="#374151" stroke-width="1"/>
  <line x1="270" y1="80" x2="270" y2="110" stroke="#374151" stroke-width="1"/>
  <line x1="280" y1="80" x2="280" y2="110" stroke="#374151" stroke-width="1"/>
  <line x1="290" y1="80" x2="290" y2="110" stroke="#374151" stroke-width="1"/>
  
  <!-- Fans -->
  <circle cx="140" cy="50" r="25" fill="#374151"/>
  <circle cx="260" cy="50" r="25" fill="#374151"/>
  <!-- Fan blades -->
  <path d="M140 30 L148 38 L140 70 L132 38 Z" fill="#6b7280"/>
  <path d="M165 50 L148 58 L115 50 L148 42 Z" fill="#6b7280"/>
  <path d="M260 30 L268 38 L260 70 L252 38 Z" fill="#6b7280"/>
  <path d="M285 50 L268 58 L235 50 L268 42 Z" fill="#6b7280"/>
  
  <!-- CPU Block -->
  <rect x="170" y="200" width="60" height="60" rx="4" fill="#1f2937"/>
  <circle cx="200" cy="230" r="20" fill="#dc2626"/>
  
  <!-- Tubes -->
  <path d="M180 130 Q180 160 190 180 Q195 190 180 200" stroke="#3b82f6" stroke-width="4" fill="none"/>
  <path d="M220 130 Q220 160 210 180 Q205 190 220 200" stroke="#dc2626" stroke-width="4" fill="none"/>
  
  <text x="200" y="330" text-anchor="middle" fill="#9ca3af" font-family="Arial" font-size="14">COOLING</text>
</svg>