<!-- Placeholder SVG for CPU image -->
<svg width="400" height="400" viewBox="0 0 400 400" fill="none" xmlns="http://www.w3.org/2000/svg">
  <rect width="400" height="400" fill="#f3f4f6"/>
  <rect x="80" y="80" width="240" height="240" rx="8" fill="#374151"/>
  <rect x="100" y="100" width="200" height="200" fill="#1f2937"/>
  <!-- CPU pins -->
  <rect x="60" y="140" width="20" height="4" fill="#6b7280"/>
  <rect x="60" y="160" width="20" height="4" fill="#6b7280"/>
  <rect x="60" y="180" width="20" height="4" fill="#6b7280"/>
  <rect x="60" y="200" width="20" height="4" fill="#6b7280"/>
  <rect x="60" y="220" width="20" height="4" fill="#6b7280"/>
  <rect x="60" y="240" width="20" height="4" fill="#6b7280"/>
  <rect x="60" y="260" width="20" height="4" fill="#6b7280"/>
  
  <rect x="320" y="140" width="20" height="4" fill="#6b7280"/>
  <rect x="320" y="160" width="20" height="4" fill="#6b7280"/>
  <rect x="320" y="180" width="20" height="4" fill="#6b7280"/>
  <rect x="320" y="200" width="20" height="4" fill="#6b7280"/>
  <rect x="320" y="220" width="20" height="4" fill="#6b7280"/>
  <rect x="320" y="240" width="20" height="4" fill="#6b7280"/>
  <rect x="320" y="260" width="20" height="4" fill="#6b7280"/>
  
  <text x="200" y="210" text-anchor="middle" fill="#9ca3af" font-family="Arial" font-size="16">CPU</text>
</svg>