<!-- Placeholder SVG for PSU image -->
<svg width="400" height="400" viewBox="0 0 400 400" fill="none" xmlns="http://www.w3.org/2000/svg">
  <rect width="400" height="400" fill="#f3f4f6"/>
  <rect x="70" y="120" width="260" height="160" rx="8" fill="#374151"/>
  <rect x="80" y="130" width="240" height="140" fill="#1f2937"/>
  <!-- PSU fan -->
  <circle cx="200" cy="200" r="40" fill="#4b5563"/>
  <!-- Fan blades -->
  <path d="M200 170 L215 185 L200 230 L185 185 Z" fill="#6b7280"/>
  <path d="M230 200 L215 215 L170 200 L215 185 Z" fill="#6b7280"/>
  <!-- Power cable -->
  <rect x="70" y="190" width="30" height="20" fill="#000000"/>
  <rect x="40" y="195" width="30" height="10" fill="#dc2626"/>
  <!-- Modular ports -->
  <rect x="290" y="150" width="20" height="8" fill="#6b7280"/>
  <rect x="290" y="170" width="20" height="8" fill="#6b7280"/>
  <rect x="290" y="190" width="20" height="8" fill="#6b7280"/>
  <rect x="290" y="210" width="20" height="8" fill="#6b7280"/>
  <rect x="290" y="230" width="20" height="8" fill="#6b7280"/>
  
  <text x="200" y="320" text-anchor="middle" fill="#9ca3af" font-family="Arial" font-size="16">PSU</text>
</svg>